<?xml version="1.0" standalone="no"?><!DOCTYPE svg PUBLIC "-//W3C//DTD SVG 1.1//EN" "http://www.w3.org/Graphics/SVG/1.1/DTD/svg11.dtd"><svg t="1729134554257" class="icon" viewBox="0 0 1024 1024" version="1.1" xmlns="http://www.w3.org/2000/svg" p-id="3531" xmlns:xlink="http://www.w3.org/1999/xlink" width="200" height="200"><path d="M512 0c281.6 0 512 230.4 512 512s-230.4 512-512 512-512-230.4-512-512 230.4-512 512-512z m-51.2 460.8H256c-25.6 0-51.2 25.6-51.2 51.2s25.6 51.2 51.2 51.2h204.8V768c0 25.6 25.6 51.2 51.2 51.2s51.2-25.6 51.2-51.2V563.2H768c25.6 0 51.2-25.6 51.2-51.2s-25.6-51.2-51.2-51.2H563.2V256c0-25.6-25.6-51.2-51.2-51.2s-51.2 25.6-51.2 51.2v204.8z" fill="#FB7643" p-id="3532"></path></svg>